<?xml version="1.0" standalone="no"?><!DOCTYPE svg PUBLIC "-//W3C//DTD SVG 1.1//EN" "http://www.w3.org/Graphics/SVG/1.1/DTD/svg11.dtd"><svg t="1722387657460" class="icon" viewBox="0 0 1024 1024" version="1.1" xmlns="http://www.w3.org/2000/svg" p-id="4438" xmlns:xlink="http://www.w3.org/1999/xlink" width="200" height="200"><path d="M184.43 895.099l-0.858-0.512 12.647-21.201 0.858 0.511zM539.364 662.026l2.938-2.563c0.272-0.238 0.542-0.538 0.679-0.743h-0.011c-0.428 0-1.614 0.188-4.79 1.409-0.332 0.127-0.77 0.188-1.303 0.189-13.571 0.003-89.749-39.788-93.109-41.547l-9.953-3.979c-4.728-2.025-46.824-101.584-51.609-112.93l-0.039-0.194v-4.501l13.967 0.018 18.602 5.104h48.51l77.271-28.549 0.188 0.083c0.806 0.359 80.838 35.985 99.243 34.012 18.424-1.966 42.218-16.674 42.456-16.822l0.528 0.85c-0.239 0.148-24.227 14.978-42.88 16.968-18.354 1.974-94.253-31.642-99.57-34.01l-77.059 28.47-48.889-0.018-18.602-5.104h-12.767v3.4c18.701 44.342 47.695 110.774 51.031 112.302l9.987 3.995c29.495 15.436 86.958 43.905 93.636 41.331 5.074-1.951 5.813-1.585 6.141-1.044 0.079 0.132 0.11 0.271 0.106 0.414 28.685-14.294 78.841-39.391 88.129-44.403h-0.427l0.472-0.763c0.56-0.905 55.878-90.748 53.263-111.669-1.338-10.704-1.338-10.704-0.723-10.788 0.618-0.086 0.612-0.089 1.807 7.979l-0.417 0.063 0.325 2.623c2.559 20.471-47.156 102.147-52.936 111.556h0.835l0.104 0.392c0.127 0.538 0.137 0.582-14.481 8.021-7.573 3.854-18.146 9.185-31.422 15.845a19984.424 19984.424 0 0 1-45.745 22.868l-3.486 1.735zM735.896 353.406l-0.734-0.266c-1.139-0.413-114.733-41.354-183.857-45.304-0.018 0-3.663-0.073-9.894-0.073-29.59 0-130.25 1.733-183.217 24.035l-28.072 8.903 0.045-0.728c0.017-0.27 1.864-27.319 18.385-60.525 15.243-30.639 46.454-72.957 108.578-100.568l0.105-0.033c0.722-0.145 72.609-14.436 110.188-14.436 3.768 0 7.116 0.144 9.958 0.428 0.108-0.008 15.979 0.109 38.151 9.873 20.437 8.999 50.596 28.275 78.213 69.01 0.368 0.52 37.459 53.412 42.084 108.906l0.067 0.778z m-194.485-46.643c6.242 0 9.896 0.074 9.932 0.074 66.363 3.792 173.492 41.553 183.425 45.099-4.882-54.94-41.472-107.121-41.843-107.644-27.472-40.52-57.437-59.691-77.737-68.64-21.993-9.695-37.697-9.815-37.854-9.815-2.858-0.283-6.175-0.426-9.908-0.426-37.043 0-107.603 13.941-109.938 14.405-61.822 27.49-92.872 69.592-108.038 100.077-14.919 29.987-17.805 54.88-18.223 59.408l26.623-8.441c53.095-22.358 153.924-24.097 183.561-24.097z" p-id="4439"></path><path d="M318 341.003v27.333s138.667-26.667 148-23.333c0 0 106.001 1.333 116.667 6.667 0 0 43.334 12.667 54 16.667l14 5.333s36.666 13.333 43.333 17.333c0 0 38.666 12.667 41.333 14.667s6 0 6 0l4-4s0.001-8-4.666-22c0 0 1.999-20 4.666-20.667s-49.101-26.001-127.217-42c0 0-68.88-22.064-177.442-5.267 0 0-86.88 14.617-104.776 25.609L318 341.003z" p-id="4440"></path><path d="M181.333 473.002s25.333 24 78 22.667 3.333 0.054 3.333 0.054 42.667 8.055 50 0c0 0-5.333 20.613-9.333 21.946S318 515.002 324 508.335c0 0 5.333 48 15.333 50 0 0-0.791-18.579 0.976-32.299 0.528-4.099 1.284-7.762 2.357-10.368v10.667s14.667-8.667 17.333-10.667 11.333 10 11.333 10l-4 1.333s21.333 10 22 12.667l8 0.667-14.667-38.667s58 11.329 64 10.331 40.667-9.665 49.333-17.665l42-21.333s74 38 76 35.333c0 0 26.667 10.667 56-6l16-6v11.333l-12 31.333 9.333-2.666L696 527.669l3.333-7.333 3.334-4.667v11.333l8-11.333s11.999 18.001 14.666 16.667-2.667-20 0-24.667 0.771-3.333 0.771-3.333 117.229 21.333 165.896-8c0 0 12.667-4.667 14-14l-11.832-11.849s14.182 15.246 6.007 15.214-462.979-223.222-697.91-58.293c0 0-16.265-1.023-20.931 18.262s0 21.333 0 21.333l-0.001 5.999z" p-id="4441"></path><path d="M318 368.337s-124.667 39.332-133.333 51.999S176 433.002 176 433.002s-8.667 10.667-4.667 20.667 10 19.333 10 19.333L184 444.335s-0.667-12.667 14-14c0 0 32.667-23.554 52-23.777 0 0 16-2.223 18-2.89s10-5.333 10-5.333 15.333 1.334 18.667-1.333 34.667-12 42.667-10 26.667-2 26.667-2l9.333-6.667 8-0.667 4.667 5.333s2.667-4.667 6-4.667h3.333l14-1.333 44.666 0.668s36.667-7.333 56 0c0 0 28 8 30 6.667s4.667-2 4.667-2 27.334-2 34 3.333c0 0 61.334 17.333 72 12v8.89s9.334-6.223 12-4.223 0 6.667 0 6.667 5.999-4.888 8.666-2.444 31.334 16.443 38.667 21.777 3.333 0.667 3.333 0.667l20 4.667v6s29.333-4 38 0L792 448.335l19.333 4 11.334 6 7.333 2 4 4 7.333 1.333 8.667-8 6.667 12v3.333H870l3.333 7.333h4L892 485.669s15.333 1.333 4-13.333-135.479-58.627-168.739-69.979l-88.044-33.048s-55.751-19.985-87.102-21.47c0 0-50.206-18.275-201.827 14.445L318 368.337z" fill="#FFFFFF" p-id="4442"></path><path d="M892.936 486.201c-0.6 0-0.979-0.034-0.979-0.034l-0.128-0.028-14.584-5.303h-4.234l-3.333-7.333h-13.511v-3.704l-6.295-11.331-8.383 7.738-7.732-1.406-4.017-4.017-7.309-2.005-11.271-5.968-19.373-4.021-18.667-8.667c-2.488-1.149-7.028-1.731-13.493-1.731-11.094 0-24.099 1.756-24.229 1.773l-0.567 0.077v-6.176l-18.271-4.264c0.493 0.794 0.363 1.075 0.299 1.217-0.106 0.233-0.34 0.373-0.619 0.373-0.439 0-1.322-0.314-4.535-2.651-3.947-2.871-14.141-8.281-23.134-13.055-7.679-4.076-14.31-7.595-15.577-8.757-0.406-0.372-0.925-0.553-1.588-0.553-2.688 0-6.389 2.985-6.425 3.016l-2.071 1.686 1.321-2.321c0.023-0.043 2.415-4.309 0.135-6.02-0.263-0.196-0.648-0.296-1.148-0.296-3.431 0-10.206 4.49-10.273 4.535l-0.777 0.518v-9.07c-1.438 0.515-3.479 0.766-6.203 0.766-19.078 0-64.972-12.908-65.433-13.038l-0.177-0.09c-2.938-2.35-10.685-3.591-22.405-3.591-6.146 0-11.159 0.359-11.245 0.366 0.028 0-2.536 0.657-4.427 1.917-0.242 0.162-0.605 0.234-1.177 0.234-5.255 0-28.262-6.557-29.238-6.835-5.686-2.155-13.401-3.24-22.975-3.24-16.353 0-32.628 3.217-32.791 3.25l-0.052 0.011-0.053-0.001-44.667-0.667-13.945 1.331-3.38-0.002c-3.002 0-5.541 4.371-5.566 4.415l-0.349 0.608-4.962-5.671-7.611 0.634-9.408 6.669c-0.119 0.026-12.1 2.571-20.926 2.571-2.433 0-4.439-0.193-5.966-0.575-0.7-0.175-1.63-0.264-2.764-0.264-10.502 0-36.505 7.797-39.47 10.169-1.473 1.178-5.138 1.776-10.894 1.776-3.739 0-7.199-0.26-7.97-0.322-1.1 0.64-8.053 4.662-9.958 5.297-2.021 0.673-17.434 2.819-18.089 2.91-19.017 0.224-51.451 23.453-51.776 23.687l-0.111 0.08-0.136 0.013c-14.026 1.275-13.572 12.978-13.546 13.476l-2.803 30.185-0.784-1.22c-0.061-0.095-6.072-9.489-10.044-19.418-4.063-10.156 4.381-20.724 4.743-21.167l8.642-12.634c8.665-12.664 128.499-50.585 133.596-52.193l32.347-6.069c60.082-12.965 111.382-19.541 152.463-19.541 33.84 0 48.389 4.696 49.552 5.092 31.08 1.5 86.617 21.296 87.175 21.496l88.051 33.05c1.546 0.527 156.02 53.395 168.959 70.142 3.761 4.865 5.05 8.588 3.832 11.064-1.326 2.703-5.137 3.107-7.291 3.107z m-0.83-1.026c0.122 0.009 0.42 0.025 0.828 0.025 1.548 0 5.268-0.248 6.396-2.547 1.02-2.076-0.27-5.539-3.727-10.014-10.588-13.703-125.227-55.04-168.505-69.812l-88.059-33.053c-0.55-0.197-56.033-19.974-86.949-21.439l-0.146-0.029c-0.141-0.051-14.35-5.058-49.285-5.058-41.01 0-92.24 6.568-152.267 19.521l-32.301 6.057c-1.187 0.378-124.542 39.408-133.013 51.789l-8.667 12.667c-0.109 0.137-8.457 10.593-4.615 20.199 3.088 7.722 7.423 15.118 9.175 17.991l2.529-27.187c-0.008-0.06-0.517-13.011 14.316-14.439 2.442-1.75 33.276-23.573 52.176-23.792 5.455-0.762 16.3-2.348 17.848-2.864 1.929-0.643 9.827-5.245 9.906-5.292l0.137-0.08 0.158 0.014c0.038 0.003 3.864 0.332 8.042 0.332 6.878 0 9.381-0.847 10.269-1.557 3.106-2.484 29.121-10.388 40.095-10.388 1.215 0 2.227 0.099 3.006 0.293 1.447 0.362 3.373 0.545 5.724 0.545 8.293 0 19.439-2.282 20.616-2.528l9.36-6.686 8.389-0.699 4.391 5.018c0.873-1.31 3.199-4.332 6.066-4.332h3.333l13.953-1.331 44.668 0.664c1.042-0.204 16.952-3.259 32.935-3.259 9.694 0 17.53 1.107 23.289 3.292 0.197 0.055 23.81 6.784 28.924 6.784 0.492 0 0.621-0.066 0.626-0.069 2.044-1.362 4.706-2.038 4.818-2.066 0.135-0.017 5.195-0.382 11.403-0.382 8.276 0 18.947 0.652 22.949 3.746 2.356 0.661 46.539 12.974 65.064 12.974 3.018 0 5.197-0.325 6.479-0.966l0.724-0.362v8.783c1.939-1.216 7.015-4.204 10.052-4.204 0.722 0 1.311 0.167 1.748 0.496 1.897 1.423 1.484 3.91 0.901 5.585 1.436-0.941 3.644-2.146 5.539-2.146 0.911 0 1.673 0.274 2.264 0.815 1.174 1.076 8.069 4.736 15.37 8.611 9.021 4.79 19.249 10.218 23.253 13.13 1.712 1.245 2.696 1.861 3.257 2.166-0.17-0.243-0.381-0.516-0.598-0.769l-0.992-1.159 21.872 5.104v5.827c2.636-0.337 13.956-1.708 23.796-1.708 6.61 0 11.291 0.614 13.914 1.824l18.615 8.643 19.409 4.036 11.284 5.975 7.407 2.021 3.983 3.983 6.934 1.261 8.951-8.262 7.039 12.669v2.963h13.155l3.333 7.333 3.849 0.03 14.607 5.313z" p-id="4443"></path><path d="M535.227 478.331s-3.226 30.672-12.56 33.669c0 0 0.083 2.75 1.583 3.5s5.932 1 7.466 2.5 4.237 6 3.511 8.25 1.523 0 1.523 0L539 524l-2-42v-3.669h-1.773z" p-id="4444"></path><path d="M638.021 520.881c-13.855 0-22.438-5.622-22.582-5.72l1.119-1.657c0.23 0.156 23.543 15.337 55.554-6.002l1.108 1.664c-13.549 9.033-25.632 11.715-35.199 11.715z" p-id="4445"></path><path d="M638.999 520.25h2v9.417h-2zM659.039 525.24l-2.55-8.709 1.921-0.562 2.549 8.708zM474.907 570.818l-1.149-1.638c0.164-0.114 16.687-11.595 41.247-17.775 22.696-5.712 57.108-7.963 92.188 13.744l-1.054 1.7c-34.482-21.34-68.325-19.125-90.646-13.506-24.207 6.095-40.425 17.362-40.586 17.475z" p-id="4446"></path><path d="M519.333 567.667l-4 11.666s5.668-6.721 23.667-3.693c0 0 11.666-4.307 17.666-2.14s1.667 0 1.667 0l4.333 2.167S566 574 565.333 572s-5.667-6-5.667-6h-2.667l-20.333 2-11 2-6.333-2.333z" p-id="4447"></path><path d="M513.994 581.695l5.032-14.675 6.685 2.463 10.865-1.977 20.374-2.006 2.892-0.002 0.138 0.109c0.522 0.419 5.135 4.151 5.828 6.231 0.796 2.384-2.766 4.196-2.918 4.272l-0.224 0.11-2.565-1.281-0.336 0.02c-0.257 0-0.846-0.118-3.269-0.992-1.065-0.385-2.409-0.58-3.994-0.58-5.896 0-13.255 2.69-13.329 2.719l-0.125 0.047-0.131-0.022c-3.063-0.516-5.969-0.775-8.634-0.775-10.816 0-14.531 4.256-14.568 4.299l-1.721 2.04z m5.646-13.382l-3.248 9.476c1.997-1.381 6.249-3.432 13.893-3.432 2.683 0 5.599 0.258 8.67 0.769 1.039-0.374 7.834-2.734 13.549-2.734 1.701 0 3.159 0.216 4.334 0.64 0.607 0.22 1.091 0.388 1.476 0.517l0.245-0.493 4.099 2.05c0.665-0.385 2.635-1.652 2.204-2.943-0.492-1.478-3.918-4.482-5.369-5.658h-2.49l-20.284 1.998-11.094 2.019-5.985-2.209zM652.791 622.678c-0.646 0-1.171-0.063-1.605-0.198l-4.332-1.332c-0.334-0.152-6.619-3.17-7.669-7.014-0.982-3.606-1.652-5.619-1.659-5.64l-0.065-0.196 32.849-65.644c0.594-0.611 14.677-14.969 28.359-14.969 8.137 0 14.348 5.09 18.463 15.126 0.261 0.808 6.025 19.004 1.308 27.433-0.107 0.189-10.667 19.013-11.974 22.276l-1.382 3.456-0.104 0.082c-0.873 0.696-21.464 17.076-27.146 19.081l-5.667 2c-0.533 0.219-13.634 5.539-19.376 5.539z m-14.253-14.302c0.19 0.594 0.795 2.502 1.611 5.494 0.929 3.405 7.004 6.318 7.063 6.347l4.268 1.309c0.332 0.102 0.772 0.152 1.311 0.152 5.548 0 18.886-5.417 19.021-5.472l5.688-2.009c5.323-1.879 25.134-17.555 26.751-18.837l1.284-3.21c1.329-3.325 11.592-21.618 12.028-22.396 4.506-8.049-1.314-26.415-1.373-26.6-3.934-9.588-9.833-14.47-17.524-14.47-12.854 0-26.623 13.637-27.589 14.609l-32.539 65.083z" p-id="4448"></path><path d="M641.524 606.021l-0.25-0.97c11.688-3.009 29.586-8.242 30.976-10.326l4.819-4.831c-1.205-2.725-8.785-20.881-1.475-30.954 0.229-0.447 6.591-12.439 15.911-12.692 5.682-0.177 11.154 4.129 16.256 12.731l0.066 0.192 1.334 10.769-0.992 0.123-1.321-10.664c-4.804-8.067-9.864-12.155-15.048-12.155-0.089 0-0.178 0.001-0.268 0.004-8.739 0.237-15.028 12.098-15.091 12.218-7.444 10.267 1.586 30.129 1.678 30.328l0.146 0.317-5.247 5.246c-1.984 2.993-28.48 9.886-31.494 10.664z" p-id="4449"></path><path d="M681.285 595.974l-0.793-0.608c6.947-9.057 7.382-13.986 6.521-16.527a5.05 5.05 0 0 0-3.059-3.145c-3.513 0.36-10.469-6.311-11.258-7.08l0.698-0.716c2.069 2.021 7.979 7.179 10.527 6.791l0.104-0.017 0.103 0.028c0.114 0.029 2.807 0.789 3.831 3.814 1.366 4.035-0.88 9.908-6.674 17.46z" p-id="4450"></path><path d="M419.037 626.986c-7.725 0-28.315-6.563-29.188-6.841l-4.417-2.369c-4.371-2.354-25.05-22.317-29.502-28.481-4.371-6.053-9.428-19.251-9.428-23.295 0-3.996 2.884-21.979 3.006-22.743l1.677-6.382c1.391-5.28 10.09-7.644 18.096-7.644 1.523 0 3.008 0.094 4.291 0.271 6.611 0.92 19.215 8.492 21.669 9.998l1.229-1.727 2.912 1.692 3.203 7.381 31.782 67.088 5.02 2.009-12.938 9.543-5.667 1.334c-0.466 0.113-1.037 0.166-1.745 0.166z m-49.757-96.755c-7.375 0-15.881 2.157-17.128 6.896l-1.667 6.334c-0.021 0.139-2.983 18.62-2.983 22.537 0 3.916 4.956 16.778 9.239 22.709 4.273 5.918 24.99 25.938 29.165 28.187l4.333 2.333c0.128 0.032 21.229 6.759 28.799 6.759 0.621 0 1.131-0.046 1.517-0.138l5.566-1.311 11.234-8.33-3.722-1.488-0.084-0.178-31.873-67.28-3.08-7.095-1.84-1.07-1.246 1.748-0.398-0.249c-0.146-0.091-14.698-9.132-21.679-10.103a31.217 31.217 0 0 0-4.153-0.261z" p-id="4451"></path><path d="M424.787 605.777c-2.507 0-6.536-1.173-12.747-5.704l-8.159-5.78-0.038-0.198c-0.017-0.088-1.675-8.915-1.675-15.985-0.013-0.07-1.806-13.234-15.086-21.009-7.882-4.942-20.183-12.369-21.818-12.604l-2.069-0.296-6.046 6.684c-0.192 1.77-1.847 17.625-0.025 21.572l-0.908 0.418c-2.035-4.412-0.125-21.535-0.043-22.263l0.02-0.159 6.618-7.316 2.598 0.37c2.37 0.338 20.173 11.471 22.194 12.738 13.708 8.023 15.548 21.665 15.564 21.802 0.003 6.451 1.382 14.325 1.625 15.665l7.834 5.549c11.677 8.522 14.948 4.618 14.98 4.578l0.801 0.6c-0.077 0.101-1.046 1.338-3.62 1.338z" p-id="4452"></path><path d="M384.955 594.994c-4.164-4.858-2.111-25.765-1.428-27.816 0.729-2.192 9.754-1.837 12.503-1.677l-0.06 0.998c-5.288-0.31-11.17 0.016-11.497 0.995-0.646 1.939-2.622 22.345 1.239 26.85l-0.757 0.65zM408.712 607.547c-2.898 0-6.094-0.444-9.166-1.773l-16.875-1.331-8.575-4.666 0.479-0.879 8.48 4.614 16.814 1.312c8.711 3.818 18.854 0.029 18.954-0.01l0.355 0.935c-0.282 0.105-4.811 1.798-10.466 1.798zM536.642 895.275c-6.406 0-9.142-0.682-9.142-2.277 0-3.566-5.593-14.025-12.537-21.664-4.37-4.806-32.87-6.519-58.084-6.519-2.23 0-3.537 0.016-3.539 0.016l-0.329 0.004-0.134-0.301c-5.309-11.945-7.933-55.013-8.042-56.84l-0.001-4.855 16-22.666v-40.509c-0.033-0.848-3.333-86.74-3.333-94 0-7.117-6.536-18.815-6.602-18.933l-0.068-0.12 0.133-5.239 9.304 4.784c4.264 4.839 59.854 26.658 60.415 26.878 6.995 4.362 14.293 5.269 19.198 5.269 3.09 0 5.216-0.364 5.587-0.435l67.582-32.197-2.051 34.2-1.499 74.139 1.493 45.276 6.859 6.859c21.387 22.357 19.837 37.981 19.651 39.354 1.969 13.902 0.013 36.319-0.007 36.544l-0.035 0.396-2.726 0.387-32.051 1.338-14.664 0.667c-14.186 0.646-26.111 28.087-26.229 28.364l-0.114 0.265-0.286 0.034c-0.147 0.019-14.956 1.781-24.749 1.781z m-79.764-31.46c15.815 0 53.207 0.667 58.825 6.847 6.578 7.233 12.797 18.09 12.797 22.336 0 0.052 0.093 1.277 8.142 1.277 8.984 0 22.245-1.496 24.349-1.74 1.344-3.052 12.78-28.059 26.988-28.703l14.666-0.667 32.003-1.334 1.889-0.271c0.252-3.064 1.794-23.22-0.03-35.99l-0.011-0.073 0.012-0.073c0.024-0.158 2.169-16.063-19.367-38.578l-7.132-7.132-0.009-0.197-1.5-45.5 1.5-74.186 1.95-32.529-66.166 31.523-0.062 0.013c-0.229 0.046-13.43 2.624-25.487-4.914-2.207-0.854-55.776-21.883-60.65-27.033l-7.663-3.906-0.085 3.379c0.744 1.341 6.663 12.234 6.663 19.302 0 7.24 3.3 93.114 3.333 93.98v40.846l-16 22.666v4.508c0.025 0.412 2.677 43.951 7.827 56.164 0.523-0.007 1.64-0.015 3.218-0.015z" p-id="4453"></path><path d="M459 739.5s-4-0.5-6.5 0l-2.5 0.5-14 6.5-12 21.5-7.5 7.5-119.5 41-28.5-12.5s-51.5 42-74 49c0 0-4 23-2.5 24.5 0 0 54.5-47.5 74.5-42 0 0 11.5 9 12.5 18.5l1 9.5s8 22.551 11.5 31.275l3.5 8.725s10.5-0.5 11.5-3 94.5-8 94.5-8l1.5 2.275h54L445.333 806l16-25.669V741.5l-2.333-2zM609.174 739.277L645.5 743.5s9.9 24.5 11.95 27.5S700 789.5 702 792l19.777 7S766 825 787.5 829c0 0 17.5 7.5 28.5 9s2 0 2 0 28-2 30-3 12.5-2 12.5-2l-2 5.667s2.5 38.833 2 46.333-2.5 9.775-2.5 9.775H646s-1 4.725-2.5 4.225-9-4.225-9-4.225 2.777-42.498 3.389-73.388c0 0-6.889-26.389-27.389-41.889l-1.326-40.221zM451.443 622.178l5.897 18.82 83.158 57.336s8.168 6 12.168 0l56.507-50.667 3.326-21.181-66.875 31.86s-13.284 2.734-22.958-2.547l-9.674-5.281-61.549-28.34z" p-id="4454"></path><path d="M547.734 702.001c-3.889 0-7.668-2.744-7.827-2.861l-83.417-57.514-6.675-21.299 63.596 29.284 9.735 5.312c4.741 2.589 10.441 3.133 14.389 3.133 4.033 0 7.149-0.548 7.773-0.665l68.474-32.623-3.677 23.406-56.681 50.823c-1.354 1.966-3.319 3.004-5.69 3.004z m-89.542-61.631l82.875 57.141c0.058 0.041 3.442 2.49 6.668 2.49 1.763 0 3.104-0.727 4.101-2.222l0.164-0.189 56.242-50.43 2.977-18.955-65.271 31.098-0.119 0.024c-0.146 0.029-3.592 0.729-8.291 0.729-6.079 0-11.243-1.137-15.348-3.377l-9.675-5.281-59.442-27.368 5.119 16.34zM841.333 465.669l8.667-8 6.667 12" p-id="4455"></path><path d="M855.793 470.155l-6.05-10.888-7.731 7.137-1.358-1.47 9.603-8.863 7.284 13.112zM364.001 302.334s-0.667 12.667 0 13.333" p-id="4456"></path><path d="M363.647 316.021c-0.548-0.547-0.597-5.161-0.146-13.713l0.999 0.053c-0.308 5.843-0.428 12.311-0.096 13.019l-0.757 0.641zM374.334 293s0.333 8.001 0 16" p-id="4457"></path><path d="M374.834 309.022l-0.999-0.042c0.329-7.887 0.003-15.879 0-15.958l0.999-0.042c0.003 0.08 0.331 8.113 0 16.042zM445.333 227.667s-4 14 0 25.333" p-id="4458"></path><path d="M444.862 253.167c-4.007-11.353-0.05-25.496-0.01-25.637l0.963 0.274c-0.04 0.139-3.909 13.982-0.01 25.029l-0.943 0.334z" p-id="4459"></path><path d="M454.834 240.334h1v12.667h-1zM466.001 246.667s-1.333 7.914 0 11.124M422.667 288.334s-0.637 14.828 0 20.667M445.333 295.667s-2 0.854 0 9.76l2 8.906" p-id="4460"></path><path d="M468.667 298.667l3.333 15M471.493 313.768l-3.333-15 0.977-0.217 3.332 15z" p-id="4461"></path><path d="M624.001 217.667S635.776 229 637.889 233" p-id="4462"></path><path d="M670.473 239.076l-19.79-22.793 0.756-0.656 19.789 22.793z" p-id="4463"></path><path d="M660.56 298.931l-6.333-10.334 0.853-0.523 6.333 10.334z" p-id="4464"></path><path d="M670.896 288.334s1.767-0.667 1.77 4.667M692.334 295.667s13.665 18.667 16.333 42.667M895.525 894.933l-7-21.198c-13.634-29.62-29.411-28.25-29.577-28.229l-0.113-0.994c0.676-0.074 16.629-1.544 30.619 28.857l7.021 21.251-0.95 0.313zM616.415 800.277l-0.832-0.556c1.292-1.938-3.465-8.005-6.767-11.373l0.715-0.698c0.932 0.951 9.046 9.383 6.884 12.627z" p-id="4465"></path></svg>